<?xml version="1.0" encoding="UTF-8" standalone="no"?><!DOCTYPE svg PUBLIC "-//W3C//DTD SVG 1.1//EN" "http://www.w3.org/Graphics/SVG/1.1/DTD/svg11.dtd"><svg width="100%" height="100%" viewBox="0 0 102 105" version="1.1" xmlns="http://www.w3.org/2000/svg" xmlns:xlink="http://www.w3.org/1999/xlink" xml:space="preserve" xmlns:serif="http://www.serif.com/" style="fill-rule:evenodd;clip-rule:evenodd;stroke-linecap:round;stroke-linejoin:round;stroke-miterlimit:1.5;"><g><path d="M30.698,4.863l40.787,0.073l26.142,43.653l-7.691,27.879l-19.537,21.585l-44.704,-0.113l-20.485,-30.952l-0.693,-19.953l26.181,-42.172Z" style="fill:#804d1c;"/><path d="M5.806,45.926c0,0 17.606,30.25 21.434,36.826c0.469,0.806 1.221,1.408 2.11,1.688c3.986,1.256 15.522,4.892 20.268,6.387c1.331,0.42 2.773,0.301 4.018,-0.331c4.724,-2.397 16.733,-8.493 20.871,-10.593c0.935,-0.474 1.725,-1.189 2.291,-2.072c3.923,-6.125 19.885,-31.042 19.885,-31.042l-24.507,-40.831l-40.004,0.805l-26.366,39.163Z" style="fill:#c78741;"/><path d="M69.143,17.455c0,0 10.27,29.995 0.619,44.608c-9.651,14.614 -24.213,15.862 -35.592,8.348c-11.378,-7.515 -15.292,-20.965 -5.641,-35.579c9.651,-14.613 40.614,-17.377 40.614,-17.377Z" style="fill:#79ad24;stroke:#3b4700;stroke-width:6px;"/><g><path d="M30.736,75.512l25.165,-39.513" style="fill:none;stroke:#3b4700;stroke-width:6px;"/><path d="M45.551,38.035l2.092,11.532l11.681,-3.846" style="fill:none;stroke:#3b4700;stroke-width:6px;"/><path d="M35.915,45.679l3.982,14.999l16.684,-2.512" style="fill:none;stroke:#3b4700;stroke-width:6px;"/></g><path d="M29.612,6.613c0.675,-1.088 1.865,-1.748 3.146,-1.746c6.969,0.012 29.623,0.053 36.637,0.066c1.297,0.002 2.497,0.684 3.163,1.796c4.328,7.227 20.444,34.137 24.257,40.504c0.519,0.866 0.66,1.907 0.392,2.881c-1.412,5.117 -5.955,21.583 -7.038,25.508c-0.153,0.557 -0.435,1.069 -0.822,1.497c-2.735,3.022 -14.216,15.706 -17.844,19.715c-0.702,0.776 -1.701,1.218 -2.748,1.215c-6.909,-0.017 -33.57,-0.085 -41.08,-0.104c-1.237,-0.003 -2.39,-0.624 -3.072,-1.655c-3.749,-5.664 -16.012,-24.194 -18.818,-28.433c-0.376,-0.568 -0.587,-1.229 -0.611,-1.91c-0.119,-3.416 -0.496,-14.259 -0.618,-17.789c-0.026,-0.732 0.167,-1.455 0.553,-2.078c3.364,-5.417 20.062,-32.314 24.503,-39.467Z" style="fill:none;stroke:#4e290b;stroke-width:6px;stroke-miterlimit:1;"/></g></svg>